Coordinates
version=1
nRows=9
nColumns=24
inDegrees=yes

Units are S.I. units (second, meters, Newtons, ...)
Angles are in degrees.

endheader
time	pelvis_tilt	pelvis_list	pelvis_rotation	pelvis_tx	pelvis_ty	pelvis_tz	hip_flexion_r	hip_adduction_r	hip_rotation_r	knee_angle_r	ankle_angle_r	subtalar_angle_r	mtp_angle_r	hip_flexion_l	hip_adduction_l	hip_rotation_l	knee_angle_l	ankle_angle_l	subtalar_angle_l	mtp_angle_l	lumbar_extension	lumbar_bending	lumbar_rotation
      1.32950000	     -6.22043475	      5.48344177	     -1.14337525	      0.19880410	      0.99207300	      0.31056543	     24.21882997	     -5.53612646	     -0.07562331	    -68.97333337	     -8.11467853	    -13.16874382	      5.99818026	     13.62567665	     10.06381967	     -0.29202907	     -6.98850049	     -1.92105331	    -12.73662964	      1.09798633	      2.84572534	     -3.34429459	      4.44021535
      1.33366667	     -6.15006800	      5.42198619	     -1.14845158	      0.20389325	      0.99270716	      0.31048107	     24.72122120	     -5.41442025	      0.05196851	    -68.80472397	     -7.26082103	    -13.26760658	      5.91080775	     13.09306655	     10.02415175	     -0.18707646	     -6.75949298	     -1.75942032	    -12.72646679	      1.05401755	      2.75535123	     -3.27027645	      4.38994173
      1.33783333	     -6.05264706	      5.37090808	     -1.14914282	      0.20901261	      0.99338074	      0.31038251	     25.17374958	     -5.31091557	      0.16765082	    -68.57946241	     -6.36214091	    -13.25876939	      2.06551976	     12.50243428	     10.00184578	     -0.02161215	     -6.47452945	     -1.65662950	    -12.77685064	     -0.82170642	      2.64170622	     -3.21550157	      4.31591046
      1.34200000	     -5.99728436	      5.28993298	     -1.14674320	      0.21407986	      0.99395154	      0.31030136	     25.65569304	     -5.17079224	      0.27638958	    -68.28227065	     -5.55566608	    -13.33467226	      2.07212958	     12.00343880	      9.93965699	      0.07422089	     -6.28416433	     -1.42492160	    -12.75029701	     -0.81620663	      2.56970181	     -3.11833136	      4.28033763
      1.34616667	     -5.92448060	      5.21457943	     -1.13973927	      0.21916032	      0.99452187	      0.31022240	     26.10015609	     -5.04184568	      0.37645871	    -67.93070724	     -4.75219702	    -13.40774278	      2.07638793	     11.47254264	      9.88405823	      0.17601260	     -6.06406391	     -1.25012598	    -12.72088213	     -0.81506221	      2.48163149	     -3.02675764	      4.23619324
      1.35033333	     -5.85134242	      5.13227042	     -1.13193347	      0.22420967	      0.99506649	      0.31013861	     26.52888175	     -4.90586960	      0.47389403	    -67.51973108	     -3.97387409	    -13.45774378	      2.07683071	     10.94665107	      9.82152163	      0.29998815	     -5.85217190	     -1.08311572	    -12.70591404	     -0.81791017	      2.36958415	     -2.93396386	      4.18458841
      1.35450000	     -5.77814666	      5.05548678	     -1.11877857	      0.22925902	      0.99556792	      0.31005588	     26.94265118	     -4.78153796	      0.55913967	    -67.05958802	     -3.20967408	    -13.49872150	      2.07545807	     10.41905740	      9.76438787	      0.41897230	     -5.63501668	     -0.91148227	    -12.70347246	     -0.82343062	      2.26936971	     -2.83793856	      4.13442585
      1.35866667	     -5.68350011	      4.97854659	     -1.10179127	      0.23429948	      0.99608519	      0.30997716	     27.31024301	     -4.65779707	      0.64439455	    -66.53419232	     -2.46214120	    -13.50997386	      2.06531615	      9.86691067	      9.70751025	      0.56298063	     -5.41383015	     -0.75323677	    -12.71315508	     -0.83678791	      2.14068007	     -2.77056897	      4.06627377
      1.36283333	     -5.60267656	      4.91192955	     -1.08254060	      0.23933808	      0.99652152	      0.30987319	     27.68556956	     -4.55826652	      0.71329816	    -65.97370714	     -1.74069747	    -13.50158778	      2.04108788	      9.32574614	      9.66319112	      0.70518440	     -5.18153795	     -0.59535793	    -12.74353972	     -0.86240851	      2.02474233	     -2.68764646	      3.98946144
